<svg xmlns="http://www.w3.org/2000/svg" viewBox="0 0 216.00 144.00"><g fill="#fff"><path d="m0 0h216v144h-216z"/><path stroke="#fff" stroke-width="1.06" d="m0 144v-144h216v144"/><path d="m29.74 107.39v-92.99h171.86v92.99"/></g><g fill="#333"><path d="m42.28 61.87h4.73v41.29h-4.73z"/><path d="m47.02 38.46h4.73v64.7h-4.73z"/><path d="m51.75 35.21h4.73v67.95h-4.73z"/><path d="m56.49 51.46h4.73v51.7h-4.73z"/><path d="m61.22 59.27h4.73v43.89h-4.73z"/><path d="m65.96 77.15h4.73v26.01h-4.73z"/><path d="m70.69 77.15h4.73v26.01h-4.73z"/><path d="m75.42 83.98h4.73v19.18h-4.73z"/><path d="m80.16 83h4.73v20.16h-4.73z"/><path d="m84.89 88.53h4.73v14.63h-4.73z"/><path d="m89.63 94.71h4.73v8.45h-4.73z"/><path d="m94.36 93.41h4.73v9.75h-4.73z"/><path d="m99.1 97.96h4.73v5.2h-4.73z"/><path d="m103.83 97.31h4.73v5.85h-4.73z"/><path d="m108.57 99.26h4.73v3.9h-4.73z"/><path d="m113.3 99.91h4.73v3.25h-4.73z"/><path d="m118.04 100.89h4.73v2.28h-4.73z"/><path d="m122.77 102.19h4.73v.98h-4.73z"/><path d="m127.5 102.84h4.73v.33h-4.73z"/><path d="m132.24 102.51h4.73v.65h-4.73z"/><path d="m165.38 102.84h4.73v.33h-4.73z"/><path d="m170.12 102.84h4.73v.33h-4.73z"/><path d="m184.32 102.84h4.73v.33h-4.73z"/></g><g fill="#87ceeb" fill-opacity=".3"><path d="m42.28 63.78h4.73v39.39h-4.73z"/><path d="m47.02 23.19h4.73v79.97h-4.73z"/><path d="m51.75 18.63h4.73v84.53h-4.73z"/><path d="m56.49 46h4.73v57.16h-4.73z"/><path d="m61.22 59.93h4.73v43.23h-4.73z"/><path d="m65.96 66.66h4.73v36.5h-4.73z"/><path d="m70.69 82.51h4.73v20.65h-4.73z"/><path d="m75.42 85.87h4.73v17.29h-4.73z"/><path d="m80.16 95h4.73v8.17h-4.73z"/><path d="m84.89 95.72h4.73v7.44h-4.73z"/><path d="m89.63 96.68h4.73v6.48h-4.73z"/><path d="m94.36 97.88h4.73v5.28h-4.73z"/><path d="m99.1 100.52h4.73v2.64h-4.73z"/><path d="m103.83 99.08h4.73v4.08h-4.73z"/><path d="m108.57 101.72h4.73v1.44h-4.73z"/><path d="m113.3 101.48h4.73v1.68h-4.73z"/><path d="m118.04 102.92h4.73v.24h-4.73z"/><path d="m122.77 102.68h4.73v.48h-4.73z"/><path d="m132.24 102.92h4.73v.24h-4.73z"/><path d="m155.91 102.92h4.73v.24h-4.73z"/></g><g fill="none" stroke="#000" stroke-width="1.06"><path d="m29.74 107.39v-92.99"/><path d="m25.48 103.16h4.26"/><path d="m25.48 79.58h4.26"/><path d="m25.48 56h4.26"/><path d="m25.48 32.42h4.26"/><path d="m29.74 107.39h171.86"/><path d="m42.28 111.64v-4.25"/><path d="m84.16 111.64v-4.25"/><path d="m126.04 111.64v-4.25"/><path d="m167.93 111.64v-4.25"/></g><g font-family="Arial"><g font-size="9.6"><text x="39.5" y="121.35">0</text><text x="81.38" y="121.35">1</text><text x="123.26" y="121.35">2</text><text x="165.14" y="121.35">3</text></g><g font-size="12"><text x="96.32" y="133.2">dist100</text><text transform="matrix(0-1 1 0 19.05 79.9)">density</text></g></g></svg>