<svg xmlns="http://www.w3.org/2000/svg" viewBox="0 0 648.00 216.00"><g font-family="Arial" font-size="12"><text x="312.79" y="197.28">Estimated ATE</text><text transform="matrix(0-1 1 0 12.96 92.01)">Density</text></g><g stroke="#000" stroke-width=".75"><path d="m126.13 142.56h453.34"/><path d="m126.13 142.56v7.2"/><path d="m239.47 142.56v7.2"/><path d="m352.8 142.56v7.2"/><path d="m466.13 142.56v7.2"/><path d="m579.47 142.56v7.2"/></g><g font-family="Arial" font-size="12"><text x="117.46" y="168.48">-20</text><text x="230.79" y="168.48">-10</text><text x="349.46" y="168.48">0</text><text x="459.46" y="168.48">10</text><text x="572.79" y="168.48">20</text></g><g stroke="#000" stroke-width=".75"><path d="m59.04 137.33v-113.09"/><path d="m59.04 137.33h-7.2"/><path d="m59.04 109.06h-7.2"/><path d="m59.04 80.78h-7.2"/><path d="m59.04 52.51h-7.2"/><path d="m59.04 24.24h-7.2"/></g><g font-family="Arial" font-size="12"><text x="21.28" y="141.46">0.00</text><text x="21.28" y="113.18">0.02</text><text x="21.28" y="84.91">0.04</text><text x="21.28" y="56.63">0.06</text><text x="21.28" y="28.36">0.08</text></g><g fill="none" stroke="#000" stroke-width=".75"><path d="m80.8 137.3h22.67v.03h-22.67z"/><path d="m103.47 137.29h22.67v.04h-22.67z"/><path d="m126.13 137.27h22.67v.06h-22.67z"/><path d="m148.8 137.05h22.67v.28h-22.67z"/><path d="m171.47 136.8h22.67v.53h-22.67z"/><path d="m194.13 135.67h22.67v1.66h-22.67z"/><path d="m216.8 132.56h22.67v4.77h-22.67z"/><path d="m239.47 124.08h22.67v13.25h-22.67z"/><path d="m262.13 107.57h22.67v29.76h-22.67z"/><path d="m284.8 80.22h22.67v57.11h-22.67z"/><path d="m307.47 44.65h22.67v92.69h-22.67z"/><path d="m330.13 12.4h22.67v124.94h-22.67z"/><path d="m352.8 6.67h22.67v130.67h-22.67z"/><path d="m375.47 28.82h22.67v108.52h-22.67z"/><path d="m398.13 64.1h22.67v73.23h-22.67z"/><path d="m420.8 98.13h22.67v39.2h-22.67z"/><path d="m443.47 118.62h22.67v18.72h-22.67z"/><path d="m466.13 129.56h22.67v7.78h-22.67z"/><path d="m488.8 134.71h22.67v2.62h-22.67z"/><path d="m511.47 136.7h22.67v.63h-22.67z"/><path d="m534.13 137.08h22.67v.25h-22.67z"/><path d="m556.8 137.27h22.67v.06h-22.67z"/><path d="m579.47 137.3h22.67v.03h-22.67z"/><path d="m602.13 137.3h22.67v.03h-22.67z"/></g></svg>