<svg xmlns="http://www.w3.org/2000/svg" viewBox="0 0 648.00 216.00"><g font-family="Arial" font-size="12"><text x="312.79" y="197.28">Estimated ATE</text><text transform="matrix(0-1 1 0 12.96 92.01)">Density</text></g><g stroke="#000" stroke-width=".75"><path d="m105.53 142.56h494.54"/><path d="m105.53 142.56v7.2"/><path d="m229.16 142.56v7.2"/><path d="m352.8 142.56v7.2"/><path d="m476.44 142.56v7.2"/><path d="m600.07 142.56v7.2"/></g><g font-family="Arial" font-size="12"><text x="96.86" y="168.48">-20</text><text x="220.49" y="168.48">-10</text><text x="349.46" y="168.48">0</text><text x="469.76" y="168.48">10</text><text x="593.4" y="168.48">20</text></g><g stroke="#000" stroke-width=".75"><path d="m59.04 137.33v-112.01"/><path d="m59.04 137.33h-7.2"/><path d="m59.04 109.33h-7.2"/><path d="m59.04 81.33h-7.2"/><path d="m59.04 53.32h-7.2"/><path d="m59.04 25.32h-7.2"/></g><g font-family="Arial" font-size="12"><text x="21.28" y="141.46">0.00</text><text x="21.28" y="113.46">0.02</text><text x="21.28" y="85.45">0.04</text><text x="21.28" y="57.45">0.06</text><text x="21.28" y="29.45">0.08</text></g><g fill="none" stroke="#000" stroke-width=".75"><path d="m80.8 137.32h24.73v.01h-24.73z"/><path d="m105.53 137.29h24.73v.04h-24.73z"/><path d="m130.25 137.23h24.73v.1h-24.73z"/><path d="m154.98 136.59h24.73v.74h-24.73z"/><path d="m179.71 135.38h24.73v1.95h-24.73z"/><path d="m204.44 132.59h24.73v4.74h-24.73z"/><path d="m229.16 124.94h24.73v12.4h-24.73z"/><path d="m253.89 108.4h24.73v28.94h-24.73z"/><path d="m278.62 80.58h24.73v56.75h-24.73z"/><path d="m303.35 44.85h24.73v92.48h-24.73z"/><path d="m328.07 15.94h24.73v121.39h-24.73z"/><path d="m352.8 6.67h24.73v130.67h-24.73z"/><path d="m377.53 29.27h24.73v108.06h-24.73z"/><path d="m402.25 64.63h24.73v72.71h-24.73z"/><path d="m426.98 98.04h24.73v39.29h-24.73z"/><path d="m451.71 118.9h24.73v18.44h-24.73z"/><path d="m476.44 130.11h24.73v7.22h-24.73z"/><path d="m501.16 134.74h24.73v2.6h-24.73z"/><path d="m525.89 136.11h24.73v1.23h-24.73z"/><path d="m550.62 137.11h24.73v.22h-24.73z"/><path d="m575.35 137.29h24.73v.04h-24.73z"/><path d="m600.07 137.27h24.73v.06h-24.73z"/></g></svg>