<svg xmlns="http://www.w3.org/2000/svg" viewBox="0 0 720.00 216.00" xmlns:xlink="http://www.w3.org/1999/xlink"><defs><path stroke="#000" id="a" stroke-width=".75" d="m83.39 20.53h5.36"/><path stroke="#000" id="b" stroke-width=".75" d="m443.39 20.53h5.36"/><path stroke="#000" id="c" stroke-width=".75" d="m684.53 137.87h5.36"/></defs><g stroke="#000"><path stroke-width="2.25" d="m67.31 20.53h10.72"/><g stroke-width=".75"><path stroke-dasharray="4 4" d="m72.67 59.64v-19.55"/><path d="m69.99 59.64h5.36"/><path d="m69.99 20.53h5.36"/><path fill="none" d="m67.31 40.09h10.72v-19.56h-10.72v19.56"/></g><path stroke-width="2.25" d="m80.71 20.53h10.72"/></g><use xlink:href="#a"/><use xlink:href="#a"/><g stroke="#000"><path stroke-width="2.25" d="m94.11 20.53h10.71"/><g stroke-width=".75"><path stroke-dasharray="4 4" d="m99.47 79.2v-29.33"/><path d="m96.79 79.2h5.35"/><path d="m96.79 20.53h5.35"/><path fill="none" d="m94.11 49.87h10.71v-29.34h-10.71v29.34"/></g><path stroke-width="2.25" d="m107.5 33.57h10.72"/><g stroke-width=".75"><g stroke-dasharray="4 4"><path d="m112.86 59.64v-13.03"/><path d="m112.86 20.53v13.04"/></g><path d="m110.18 59.64h5.36"/><path d="m110.18 20.53h5.36"/><path fill="none" d="m107.5 46.61h10.72v-13.04h-10.72v13.04"/></g><path stroke-width="2.25" d="m120.9 44h10.72"/><g stroke-width=".75"><g stroke-dasharray="4 4"><path d="m126.26 90.93v-35.2"/><path d="m126.26 20.53v11.74"/></g><path d="m123.58 90.93h5.36"/><path d="m123.58 20.53h5.36"/><path fill="none" d="m120.9 55.73h10.72v-23.46h-10.72v23.46"/></g><path stroke-width="2.25" d="m134.3 49.87h10.71"/><g stroke-width=".75"><g stroke-dasharray="4 4"><path d="m139.66 79.2v-23.47"/><path d="m139.66 20.53v17.6"/></g><path d="m136.98 79.2h5.36"/><path d="m136.98 20.53h5.36"/><path fill="none" d="m134.3 55.73h10.71v-17.6h-10.71v17.6"/></g><path stroke-width="2.25" d="m147.69 55.04h10.72"/><g stroke-width=".75"><g stroke-dasharray="4 4"><path d="m153.05 79.2v-17.25"/><path d="m153.05 30.89v17.25"/></g><path d="m150.37 79.2h5.36"/><path d="m150.37 30.89h5.36"/><path fill="none" d="m147.69 61.95h10.72v-13.81h-10.72v13.81"/></g><path stroke-width="2.25" d="m161.09 62.44h10.72"/><g stroke-width=".75"><g stroke-dasharray="4 4"><path d="m166.45 84.79v-16.76"/><path d="m166.45 42.88v13.97"/></g><path d="m163.77 84.79h5.36"/><path d="m163.77 42.88h5.36"/><path fill="none" d="m161.09 68.03h10.72v-11.18h-10.72v11.18"/></g><path stroke-width="2.25" d="m174.49 68.79h10.72"/><g stroke-width=".75"><g stroke-dasharray="4 4"><path d="m179.85 84.88v-11.36"/><path d="m179.85 54.6v11.35"/></g><path d="m177.17 84.88h5.36"/><path d="m177.17 54.6h5.36"/><path fill="none" d="m174.49 73.52h10.72v-7.57h-10.72v7.57"/></g><path stroke-width="2.25" d="m187.88 77.18h10.72"/><g stroke-width=".75"><g stroke-dasharray="4 4"><path d="m193.24 101.45v-18.2"/><path d="m193.24 52.9v18.21"/></g><path d="m190.56 101.45h5.36"/><path d="m190.56 52.9h5.36"/><path fill="none" d="m187.88 83.25h10.72v-12.14h-10.72v12.14"/></g><path stroke-width="2.25" d="m201.28 86.06h10.72"/><g stroke-width=".75"><g stroke-dasharray="4 4"><path d="m206.64 101.3v-12.2"/><path d="m206.64 66.25v13.71"/></g><path d="m203.96 101.3h5.36"/><path d="m203.96 66.25h5.36"/><path fill="none" d="m201.28 89.1h10.72v-9.14h-10.72v9.14"/></g><path stroke-width="2.25" d="m214.68 92.17h10.72"/><g stroke-width=".75"><g stroke-dasharray="4 4"><path d="m220.04 109.46v-12.35"/><path d="m220.04 76.11v12.35"/></g><path d="m217.36 109.46h5.36"/><path d="m217.36 76.11h5.36"/><path fill="none" d="m214.68 97.11h10.72v-8.65h-10.72v8.65"/></g><path stroke-width="2.25" d="m228.07 99.73h10.72"/><g stroke-width=".75"><g stroke-dasharray="4 4"><path d="m233.43 108.21v-6.2"/><path d="m233.43 91.59v6.19"/></g><path d="m230.75 108.21h5.36"/><path d="m230.75 91.59h5.36"/><path fill="none" d="m228.07 102.01h10.72v-4.23h-10.72v4.23"/></g><path stroke-width="2.25" d="m241.47 106.5h10.72"/><g stroke-width=".75"><g stroke-dasharray="4 4"><path d="m246.83 120.44v-10.45"/><path d="m246.83 92.56v10.46"/></g><path d="m244.15 120.44h5.36"/><path d="m244.15 92.56h5.36"/><path fill="none" d="m241.47 109.99h10.72v-6.97h-10.72v6.97"/></g><path stroke-width="2.25" d="m254.87 112.65h10.72"/><g stroke-width=".75"><g stroke-dasharray="4 4"><path d="m260.23 125.8v-9.86"/><path d="m260.23 99.49v9.87"/></g><path d="m257.55 125.8h5.36"/><path d="m257.55 99.49h5.36"/><path fill="none" d="m254.87 115.94h10.72v-6.58h-10.72v6.58"/></g><path stroke-width="2.25" d="m268.27 119.53h10.71"/><g stroke-width=".75"><g stroke-dasharray="4 4"><path d="m273.62 137.87v-14.67"/><path d="m273.62 97.53v14.67"/></g><path d="m270.94 137.87h5.36"/><path d="m270.94 97.53h5.36"/><path fill="none" d="m268.27 123.2h10.71v-11h-10.71v11"/></g><path stroke-width="2.25" d="m281.66 121.91h10.72"/><g stroke-width=".75"><g stroke-dasharray="4 4"><path d="m287.02 130.36v-6.57"/><path d="m287.02 112.52v6.57"/></g><path d="m284.34 130.36h5.36"/><path d="m284.34 112.52h5.36"/><path fill="none" d="m281.66 123.79h10.72v-4.7h-10.72v4.7"/></g><path stroke-width="2.25" d="m295.06 126.87h10.72"/><g stroke-width=".75"><g stroke-dasharray="4 4"><path d="m300.42 137.87v-7.34"/><path d="m300.42 104.87v14.66"/></g><path d="m297.74 137.87h5.36"/><path d="m297.74 104.87h5.36"/><path fill="none" d="m295.06 130.53h10.72v-11h-10.72v11"/></g><path stroke-width="2.25" d="m308.46 129.77h10.71"/><g stroke-width=".75"><g stroke-dasharray="4 4"><path d="m313.81 137.87v-4.05"/><path d="m313.81 113.59v12.14"/></g><path d="m311.14 137.87h5.35"/><path d="m311.14 113.59h5.35"/><path fill="none" d="m308.46 133.82h10.71v-8.09h-10.71v8.09"/></g><path stroke-width="2.25" d="m321.85 130.04h10.72"/><g stroke-width=".75"><path stroke-dasharray="4 4" d="m327.21 98.76v23.46"/><path d="m324.53 137.87h5.36"/><path d="m324.53 98.76h5.36"/><path fill="none" d="m321.85 137.87h10.72v-15.65h-10.72v15.65"/></g><path stroke-width="2.25" d="m335.25 132.77h10.72"/><g stroke-width=".75"><path stroke-dasharray="4 4" d="m340.61 112.36v15.3"/><path d="m337.93 137.87h5.36"/><path d="m337.93 112.36h5.36"/><path fill="none" d="m335.25 137.87h10.72v-10.21h-10.72v10.21"/></g></g><g font-family="Arial"><text x="191.08" y="12.73" font-weight="bold" font-size="14.4">Male</text><g font-size="12"><text x="155.94" y="197.28">Years of Education</text><text transform="matrix(0-1 1 0 8.64 134.23)">Proportion of Agrees</text></g></g><g stroke="#000" stroke-width=".75"><path d="m72.67 142.56h267.94"/><path d="m72.67 142.56v7.2"/><path d="m86.07 142.56v7.2"/><path d="m99.47 142.56v7.2"/><path d="m112.86 142.56v7.2"/><path d="m126.26 142.56v7.2"/><path d="m139.66 142.56v7.2"/><path d="m153.05 142.56v7.2"/><path d="m166.45 142.56v7.2"/><path d="m179.85 142.56v7.2"/><path d="m193.24 142.56v7.2"/><path d="m206.64 142.56v7.2"/><path d="m220.04 142.56v7.2"/><path d="m233.43 142.56v7.2"/><path d="m246.83 142.56v7.2"/><path d="m260.23 142.56v7.2"/><path d="m273.62 142.56v7.2"/><path d="m287.02 142.56v7.2"/><path d="m300.42 142.56v7.2"/><path d="m313.81 142.56v7.2"/><path d="m327.21 142.56v7.2"/><path d="m340.61 142.56v7.2"/></g><g font-family="Arial" font-size="12"><text transform="matrix(0-1 1 0 76.8 163.63)">0</text><text transform="matrix(0-1 1 0 90.19 163.63)">1</text><text transform="matrix(0-1 1 0 103.59 163.63)">2</text><text transform="matrix(0-1 1 0 116.99 163.63)">3</text><text transform="matrix(0-1 1 0 130.38 163.63)">4</text><text transform="matrix(0-1 1 0 143.78 163.63)">5</text><text transform="matrix(0-1 1 0 157.18 163.63)">6</text><text transform="matrix(0-1 1 0 170.57 163.63)">7</text><text transform="matrix(0-1 1 0 183.97 163.63)">8</text><text transform="matrix(0-1 1 0 197.37 163.63)">9</text><text transform="matrix(0-1 1 0 210.76 170.31)">10</text><text transform="matrix(0-1 1 0 224.16 170.31)">11</text><text transform="matrix(0-1 1 0 237.56 170.31)">12</text><text transform="matrix(0-1 1 0 250.96 170.31)">13</text><text transform="matrix(0-1 1 0 264.35 170.31)">14</text><text transform="matrix(0-1 1 0 277.75 170.31)">15</text><text transform="matrix(0-1 1 0 291.15 170.31)">16</text><text transform="matrix(0-1 1 0 304.54 170.31)">17</text><text transform="matrix(0-1 1 0 317.94 170.31)">18</text><text transform="matrix(0-1 1 0 331.34 170.31)">19</text><text transform="matrix(0-1 1 0 344.73 170.31)">20</text></g><g stroke="#000" stroke-width=".75"><path d="m54.72 137.87v-117.34"/><path d="m54.72 137.87h-7.2"/><path d="m54.72 114.4h-7.2"/><path d="m54.72 90.93h-7.2"/><path d="m54.72 67.47h-7.2"/><path d="m54.72 44h-7.2"/><path d="m54.72 20.53h-7.2"/></g><g font-family="Arial" font-size="12"><text x="23.64" y="141.99">0.0</text><text x="23.64" y="118.53">0.2</text><text x="23.64" y="95.06">0.4</text><text x="23.64" y="71.59">0.6</text><text x="23.64" y="48.12">0.8</text><text x="23.64" y="24.66">1.0</text></g><g fill="#f00"><circle cx="72.67" cy="59.64" r="4.05"/><circle cx="86.07" cy="20.53" r="4.05"/><circle cx="99.47" cy="20.53" r="4.05"/><circle cx="112.86" cy="59.64" r="4.05"/><circle cx="126.26" cy="79.2" r="4.05"/><circle cx="139.66" cy="61.6" r="4.05"/><circle cx="153.05" cy="51.59" r="4.05"/><circle cx="166.45" cy="62.44" r="4.05"/><circle cx="179.85" cy="66.9" r="4.05"/><circle cx="193.24" cy="79.2" r="4.05"/><circle cx="206.64" cy="89.1" r="4.05"/><circle cx="220.04" cy="93.4" r="4.05"/><circle cx="233.43" cy="100.39" r="4.05"/><circle cx="246.83" cy="101.85" r="4.05"/><circle cx="260.23" cy="107.16" r="4.05"/><circle cx="273.62" cy="104.87" r="4.05"/><circle cx="287.02" cy="123.79" r="4.05"/><circle cx="300.42" cy="126.87" r="4.05"/><circle cx="313.81" cy="133.82" r="4.05"/><circle cx="327.21" cy="122.22" r="4.05"/><circle cx="340.61" cy="122.56" r="4.05"/></g><g stroke="#000"><path stroke-width="2.25" d="m427.31 20.53h10.72"/><g stroke-width=".75"><path stroke-dasharray="4 4" d="m432.67 59.64v-19.55"/><path d="m429.99 59.64h5.36"/><path d="m429.99 20.53h5.36"/><path fill="none" d="m427.31 40.09h10.72v-19.56h-10.72v19.56"/></g><path stroke-width="2.25" d="m440.71 20.53h10.72"/></g><use xlink:href="#b"/><use xlink:href="#b"/><g stroke="#000"><path stroke-width="2.25" d="m467.5 37.3h10.72"/><g stroke-width=".75"><path stroke-dasharray="4 4" d="m472.86 87.58v-33.52"/><path d="m470.18 87.58h5.36"/><path d="m470.18 20.53h5.36"/><path fill="none" d="m467.5 54.06h10.72v-33.53h-10.72v33.53"/></g><path stroke-width="2.25" d="m480.9 44h10.72"/><g stroke-width=".75"><g stroke-dasharray="4 4"><path d="m486.26 90.93v-35.2"/><path d="m486.26 20.53v11.74"/></g><path d="m483.58 90.93h5.36"/><path d="m483.58 20.53h5.36"/><path fill="none" d="m480.9 55.73h10.72v-23.46h-10.72v23.46"/></g><path stroke-width="2.25" d="m494.3 48.47h10.71"/><g stroke-width=".75"><g stroke-dasharray="4 4"><path d="m499.66 70.82v-16.76"/><path d="m499.66 26.12v16.76"/></g><path d="m496.98 70.82h5.36"/><path d="m496.98 26.12h5.36"/><path fill="none" d="m494.3 54.06h10.71v-11.18h-10.71v11.18"/></g><path stroke-width="2.25" d="m507.69 52.53h10.72"/><g stroke-width=".75"><g stroke-dasharray="4 4"><path d="m513.05 84.53v-21.33"/><path d="m513.05 25.87v21.33"/></g><path d="m510.37 84.53h5.36"/><path d="m510.37 25.87h5.36"/><path fill="none" d="m507.69 63.2h10.72v-16h-10.72v16"/></g><path stroke-width="2.25" d="m521.09 62.44h10.72"/><g stroke-width=".75"><g stroke-dasharray="4 4"><path d="m526.45 84.79v-16.76"/><path d="m526.45 42.88v13.97"/></g><path d="m523.77 84.79h5.36"/><path d="m523.77 42.88h5.36"/><path fill="none" d="m521.09 68.03h10.72v-11.18h-10.72v11.18"/></g><path stroke-width="2.25" d="m534.49 69.5h10.72"/><g stroke-width=".75"><g stroke-dasharray="4 4"><path d="m539.85 84.28v-11.09"/><path d="m539.85 54.72v11.08"/></g><path d="m537.17 84.28h5.36"/><path d="m537.17 54.72h5.36"/><path fill="none" d="m534.49 73.19h10.72v-7.39h-10.72v7.39"/></g><path stroke-width="2.25" d="m547.88 78.3h10.72"/><g stroke-width=".75"><g stroke-dasharray="4 4"><path d="m553.24 94.54v-12.63"/><path d="m553.24 60.25v12.63"/></g><path d="m550.56 94.54h5.36"/><path d="m550.56 60.25h5.36"/><path fill="none" d="m547.88 81.91h10.72v-9.03h-10.72v9.03"/></g><path stroke-width="2.25" d="m561.28 84.97h10.72"/><g stroke-width=".75"><g stroke-dasharray="4 4"><path d="m566.64 99.4v-10.58"/><path d="m566.64 70.54v10.58"/></g><path d="m563.96 99.4h5.36"/><path d="m563.96 70.54h5.36"/><path fill="none" d="m561.28 88.82h10.72v-7.7h-10.72v7.7"/></g><path stroke-width="2.25" d="m574.68 92.82h10.72"/><g stroke-width=".75"><g stroke-dasharray="4 4"><path d="m580.04 109.58v-12.57"/><path d="m580.04 76.06v12.57"/></g><path d="m577.36 109.58h5.36"/><path d="m577.36 76.06h5.36"/><path fill="none" d="m574.68 97.01h10.72v-8.38h-10.72v8.38"/></g><path stroke-width="2.25" d="m588.07 100.27h10.72"/><g stroke-width=".75"><g stroke-dasharray="4 4"><path d="m593.43 107.59v-5.54"/><path d="m593.43 92.95v5.34"/></g><path d="m590.75 107.59h5.36"/><path d="m590.75 92.95h5.36"/><path fill="none" d="m588.07 102.05h10.72v-3.76h-10.72v3.76"/></g><path stroke-width="2.25" d="m601.47 106.65h10.72"/><g stroke-width=".75"><g stroke-dasharray="4 4"><path d="m606.83 119.57v-9.69"/><path d="m606.83 93.73v9.69"/></g><path d="m604.15 119.57h5.36"/><path d="m604.15 93.73h5.36"/><path fill="none" d="m601.47 109.88h10.72v-6.46h-10.72v6.46"/></g><path stroke-width="2.25" d="m614.87 112.98h10.72"/><g stroke-width=".75"><g stroke-dasharray="4 4"><path d="m620.23 123.64v-8.29"/><path d="m620.23 101.13v8.29"/></g><path d="m617.55 123.64h5.36"/><path d="m617.55 101.13h5.36"/><path fill="none" d="m614.87 115.35h10.72v-5.93h-10.72v5.93"/></g><path stroke-width="2.25" d="m628.27 117.83h10.71"/><g stroke-width=".75"><g stroke-dasharray="4 4"><path d="m633.62 137.87v-14.31"/><path d="m633.62 94.94v17.17"/></g><path d="m630.94 137.87h5.36"/><path d="m630.94 94.94h5.36"/><path fill="none" d="m628.27 123.56h10.71v-11.45h-10.71v11.45"/></g><path stroke-width="2.25" d="m641.66 122.28h10.72"/><g stroke-width=".75"><g stroke-dasharray="4 4"><path d="m647.02 130.53v-6.41"/><path d="m647.02 113.12v6.41"/></g><path d="m644.34 130.53h5.36"/><path d="m644.34 113.12h5.36"/><path fill="none" d="m641.66 124.12h10.72v-4.59h-10.72v4.59"/></g><path stroke-width="2.25" d="m655.06 126.51h10.72"/><g stroke-width=".75"><g stroke-dasharray="4 4"><path d="m660.42 137.87v-7.57"/><path d="m660.42 111.37v11.36"/></g><path d="m657.74 137.87h5.36"/><path d="m657.74 111.37h5.36"/><path fill="none" d="m655.06 130.3h10.72v-7.57h-10.72v7.57"/></g><path stroke-width="2.25" d="m668.46 126.69h10.71"/><g stroke-width=".75"><g stroke-dasharray="4 4"><path d="m673.81 137.87v-5.59"/><path d="m673.81 104.34v16.76"/></g><path d="m671.14 137.87h5.35"/><path d="m671.14 104.34h5.35"/><path fill="none" d="m668.46 132.28h10.71v-11.18h-10.71v11.18"/></g><path stroke-width="2.25" d="m681.85 137.87h10.72"/></g><use xlink:href="#c"/><use xlink:href="#c"/><g stroke="#000"><path stroke-width="2.25" d="m695.25 137.87h10.72"/><g stroke-width=".75"><path stroke-dasharray="4 4" d="m700.61 98.76v19.55"/><path d="m697.93 137.87h5.36"/><path d="m697.93 98.76h5.36"/><path fill="none" d="m695.25 137.87h10.72v-19.56h-10.72v19.56"/></g></g><g font-family="Arial"><text x="542.52" y="12.73" font-weight="bold" font-size="14.4">Female</text><text x="515.94" y="197.28" font-size="12">Years of Education</text></g><g stroke="#000" stroke-width=".75"><path d="m432.67 142.56h267.94"/><path d="m432.67 142.56v7.2"/><path d="m446.07 142.56v7.2"/><path d="m459.47 142.56v7.2"/><path d="m472.86 142.56v7.2"/><path d="m486.26 142.56v7.2"/><path d="m499.66 142.56v7.2"/><path d="m513.05 142.56v7.2"/><path d="m526.45 142.56v7.2"/><path d="m539.85 142.56v7.2"/><path d="m553.24 142.56v7.2"/><path d="m566.64 142.56v7.2"/><path d="m580.04 142.56v7.2"/><path d="m593.43 142.56v7.2"/><path d="m606.83 142.56v7.2"/><path d="m620.23 142.56v7.2"/><path d="m633.62 142.56v7.2"/><path d="m647.02 142.56v7.2"/><path d="m660.42 142.56v7.2"/><path d="m673.81 142.56v7.2"/><path d="m687.21 142.56v7.2"/><path d="m700.61 142.56v7.2"/></g><g font-family="Arial" font-size="12"><text transform="matrix(0-1 1 0 436.8 163.63)">0</text><text transform="matrix(0-1 1 0 450.19 163.63)">1</text><text transform="matrix(0-1 1 0 463.59 163.63)">2</text><text transform="matrix(0-1 1 0 476.99 163.63)">3</text><text transform="matrix(0-1 1 0 490.38 163.63)">4</text><text transform="matrix(0-1 1 0 503.78 163.63)">5</text><text transform="matrix(0-1 1 0 517.18 163.63)">6</text><text transform="matrix(0-1 1 0 530.57 163.63)">7</text><text transform="matrix(0-1 1 0 543.97 163.63)">8</text><text transform="matrix(0-1 1 0 557.37 163.63)">9</text><text transform="matrix(0-1 1 0 570.76 170.31)">10</text><text transform="matrix(0-1 1 0 584.16 170.31)">11</text><text transform="matrix(0-1 1 0 597.56 170.31)">12</text><text transform="matrix(0-1 1 0 610.96 170.31)">13</text><text transform="matrix(0-1 1 0 624.35 170.31)">14</text><text transform="matrix(0-1 1 0 637.75 170.31)">15</text><text transform="matrix(0-1 1 0 651.15 170.31)">16</text><text transform="matrix(0-1 1 0 664.54 170.31)">17</text><text transform="matrix(0-1 1 0 677.94 170.31)">18</text><text transform="matrix(0-1 1 0 691.34 170.31)">19</text><text transform="matrix(0-1 1 0 704.73 170.31)">20</text></g><g fill="#f00"><circle cx="432.67" cy="59.64" r="4.05"/><circle cx="446.07" cy="20.53" r="4.05"/><circle cx="472.86" cy="37.3" r="4.05"/><circle cx="486.26" cy="20.53" r="4.05"/><circle cx="499.66" cy="59.64" r="4.05"/><circle cx="513.05" cy="47.2" r="4.05"/><circle cx="526.45" cy="65.23" r="4.05"/><circle cx="539.85" cy="53.79" r="4.05"/><circle cx="553.24" cy="83.71" r="4.05"/><circle cx="566.64" cy="84.97" r="4.05"/><circle cx="580.04" cy="85.49" r="4.05"/><circle cx="593.43" cy="100.27" r="4.05"/><circle cx="606.83" cy="119.57" r="4.05"/><circle cx="620.23" cy="116.53" r="4.05"/><circle cx="633.62" cy="117.83" r="4.05"/><circle cx="647.02" cy="125.95" r="4.05"/><circle cx="660.42" cy="126.51" r="4.05"/><circle cx="673.81" cy="137.87" r="4.05"/><circle cx="687.21" cy="98.76" r="4.05"/><circle cx="700.61" cy="98.76" r="4.05"/></g></svg>