<svg xmlns="http://www.w3.org/2000/svg" viewBox="0 0 504.00 216.00"><g stroke="#000" stroke-width=".75"><path d="m58.97 142.56h175.61"/><path d="m58.97 142.56v7.2"/><path d="m102.87 142.56v7.2"/><path d="m146.77 142.56v7.2"/><path d="m190.68 142.56v7.2"/><path d="m234.58 142.56v7.2"/></g><g font-family="Arial" font-size="12"><text transform="matrix(0-1 1 0 63.09 163.63)">0</text><text transform="matrix(0-1 1 0 107 170.31)">10</text><text transform="matrix(0-1 1 0 150.9 170.31)">20</text><text transform="matrix(0-1 1 0 194.8 170.31)">30</text><text transform="matrix(0-1 1 0 238.7 170.31)">40</text></g><path fill="none" stroke="#000" stroke-width=".75" d="m56.16 15.84v126.72h194.4"/><g font-family="Arial" font-size="12"><text x="137.69" y="197.16">Data </text><text x="166.37" y="197.16" font-style="italic">i</text></g><g stroke="#000" stroke-width=".75"><path d="m56.16 140.17v-114.36"/><path d="m56.16 140.17h-7.2"/><path d="m56.16 123.83h-7.2"/><path d="m56.16 107.49h-7.2"/><path d="m56.16 91.16h-7.2"/><path d="m56.16 74.82h-7.2"/><path d="m56.16 58.48h-7.2"/><path d="m56.16 42.15h-7.2"/><path d="m56.16 25.81h-7.2"/></g><g font-family="Arial" font-size="12"><text x="21.08" y="144.29">-0.2</text><text x="21.08" y="127.96">-0.1</text><text x="25.08" y="111.62">0.0</text><text x="25.08" y="95.28">0.1</text><text x="25.08" y="78.94">0.2</text><text x="25.08" y="62.61">0.3</text><text x="25.08" y="46.27">0.4</text><text x="25.08" y="29.93">0.5</text></g><g stroke-width=".75"><g stroke-dasharray="4 4" stroke="#b17e64"><path d="m56.16 107.49h194.4"/><path d="m56.16 25.81h194.4"/></g><g stroke="#6497b1"><path d="m61.07 117.43h4.58"/><path d="m63.36 119.72v-4.58"/><path d="m65.46 125.55h4.58"/><path d="m67.75 127.84v-4.58"/><path d="m69.85 123.6h4.58"/><path d="m72.14 125.89v-4.59"/><path d="m74.24 118.59h4.58"/><path d="m76.53 120.88v-4.59"/><path d="m78.63 109.11h4.58"/><path d="m80.92 111.4v-4.58"/><path d="m83.02 111.56h4.58"/><path d="m85.31 113.85v-4.58"/><path d="m87.41 96.04h4.58"/><path d="m89.7 98.33v-4.58"/><path d="m91.8 94.85h4.58"/><path d="m94.09 97.14v-4.58"/><path d="m96.19 66.62h4.58"/><path d="m98.48 68.91v-4.58"/><path d="m100.58 99.66h4.58"/><path d="m102.87 101.95v-4.58"/><path d="m104.97 105.52h4.58"/><path d="m107.26 107.81v-4.58"/><path d="m109.36 84.96h4.58"/><path d="m111.65 87.25v-4.58"/><path d="m113.75 43.83h4.58"/><path d="m116.04 46.12v-4.58"/><path d="m118.14 87.13h4.58"/><path d="m120.43 89.42v-4.58"/><path d="m122.53 78.68h4.58"/><path d="m124.82 80.97v-4.58"/><path d="m126.92 99.87h4.58"/><path d="m129.21 102.16v-4.59"/><path d="m131.31 72.56h4.58"/><path d="m133.6 74.85v-4.58"/><path d="m135.7 100.83h4.59"/><path d="m137.99 103.12v-4.58"/><path d="m140.09 106.43h4.59"/><path d="m142.38 108.73v-4.59"/><path d="m144.48 115.32h4.59"/><path d="m146.77 117.61v-4.58"/><path d="m148.87 107.01h4.59"/><path d="m151.16 109.3v-4.58"/><path d="m153.26 109.56h4.59"/><path d="m155.56 111.85v-4.58"/><path d="m157.65 137.87h4.59"/><path d="m159.95 140.16v-4.58"/><path d="m162.04 112.66h4.59"/><path d="m164.34 114.95v-4.58"/><path d="m166.43 119.54h4.59"/><path d="m168.73 121.83v-4.58"/><path d="m170.83 96.18h4.58"/><path d="m173.12 98.48v-4.59"/><path d="m175.22 114.18h4.58"/><path d="m177.51 116.47v-4.58"/><path d="m179.61 89.23h4.58"/><path d="m181.9 91.53v-4.59"/><path d="m184 88.31h4.58"/><path d="m186.29 90.6v-4.58"/><path d="m188.39 89.13h4.58"/><path d="m190.68 91.42v-4.59"/><path d="m192.78 83.23h4.58"/><path d="m195.07 85.52v-4.58"/><path d="m197.17 35.05h4.58"/><path d="m199.46 37.34v-4.58"/><path d="m201.56 69.02h4.58"/><path d="m203.85 71.31v-4.58"/><path d="m205.95 91.46h4.58"/><path d="m208.24 93.75v-4.58"/><path d="m210.34 85.94h4.58"/><path d="m212.63 88.23v-4.58"/><path d="m214.73 74.36h4.58"/><path d="m217.02 76.65v-4.58"/><path d="m219.12 102.7h4.58"/><path d="m221.41 105v-4.59"/><path d="m223.51 111.92h4.58"/><path d="m225.8 114.21v-4.59"/><path d="m227.9 129.94h4.58"/><path d="m230.19 132.23v-4.58"/><path d="m232.29 119.65h4.58"/><path d="m234.58 121.94v-4.58"/></g></g><text x="184" y="23.63" fill="#005b96" font-family="Arial" font-size="9">30</text><g stroke="#000" stroke-width=".75"><path d="m310.97 142.56h175.61"/><path d="m310.97 142.56v7.2"/><path d="m354.87 142.56v7.2"/><path d="m398.77 142.56v7.2"/><path d="m442.68 142.56v7.2"/><path d="m486.58 142.56v7.2"/></g><g font-family="Arial" font-size="12"><text transform="matrix(0-1 1 0 315.09 163.63)">0</text><text transform="matrix(0-1 1 0 359 170.31)">10</text><text transform="matrix(0-1 1 0 402.9 170.31)">20</text><text transform="matrix(0-1 1 0 446.8 170.31)">30</text><text transform="matrix(0-1 1 0 490.7 170.31)">40</text></g><path fill="none" stroke="#000" stroke-width=".75" d="m308.16 15.84v126.72h194.4"/><g font-family="Arial" font-size="12"><text x="389.69" y="197.16">Data </text><text x="418.37" y="197.16" font-style="italic">i</text></g><g stroke="#000" stroke-width=".75"><path d="m308.16 129.75v-103.85"/><path d="m308.16 129.75h-7.2"/><path d="m308.16 112.44h-7.2"/><path d="m308.16 95.14h-7.2"/><path d="m308.16 77.83h-7.2"/><path d="m308.16 60.52h-7.2"/><path d="m308.16 43.21h-7.2"/><path d="m308.16 25.9h-7.2"/></g><g font-family="Arial" font-size="12"><text x="277.08" y="133.88">0.0</text><text x="277.08" y="116.57">0.1</text><text x="277.08" y="99.26">0.2</text><text x="277.08" y="81.95">0.3</text><text x="277.08" y="64.64">0.4</text><text x="277.08" y="47.34">0.5</text><text x="277.08" y="30.03">0.6</text></g><g stroke-width=".75"><g stroke-dasharray="4 4" stroke="#b17e64"><path d="m308.16 129.75h194.4"/><path d="m308.16 43.21h194.4"/></g><g stroke="#6497b1"><path d="m313.07 117.44h4.58"/><path d="m315.36 119.73v-4.58"/><path d="m317.46 107.9h4.58"/><path d="m319.75 110.19v-4.58"/><path d="m321.85 106.44h4.58"/><path d="m324.14 108.73v-4.58"/><path d="m326.24 137.87h4.58"/><path d="m328.53 140.16v-4.58"/><path d="m330.63 122.49h4.58"/><path d="m332.92 124.79v-4.59"/><path d="m335.02 123.18h4.58"/><path d="m337.31 125.47v-4.58"/><path d="m339.41 102.58h4.58"/><path d="m341.7 104.87v-4.58"/><path d="m343.8 105.07h4.58"/><path d="m346.09 107.36v-4.58"/><path d="m348.19 82.45h4.58"/><path d="m350.48 84.75v-4.59"/><path d="m352.58 134.61h4.58"/><path d="m354.87 136.9v-4.58"/><path d="m356.97 136.86h4.58"/><path d="m359.26 139.16v-4.59"/><path d="m361.36 116.83h4.58"/><path d="m363.65 119.12v-4.59"/><path d="m365.75 58.08h4.58"/><path d="m368.04 60.37v-4.58"/><path d="m370.14 108.04h4.58"/><path d="m372.43 110.33v-4.58"/><path d="m374.53 100.71h4.58"/><path d="m376.82 103v-4.58"/><path d="m378.92 123.59h4.58"/><path d="m381.21 125.88v-4.59"/><path d="m383.31 85.33h4.58"/><path d="m385.6 87.62v-4.58"/><path d="m387.7 104.66h4.59"/><path d="m389.99 106.95v-4.58"/><path d="m392.09 120.85h4.59"/><path d="m394.38 123.14v-4.58"/><path d="m396.48 117.63h4.59"/><path d="m398.77 119.92v-4.58"/><path d="m400.87 90h4.59"/><path d="m403.16 92.29v-4.58"/><path d="m405.26 109.07h4.59"/><path d="m407.56 111.36v-4.58"/><path d="m409.65 128.18h4.59"/><path d="m411.95 130.47v-4.58"/><path d="m414.04 114.85h4.59"/><path d="m416.34 117.14v-4.58"/><path d="m418.43 111.71h4.59"/><path d="m420.73 114v-4.58"/><path d="m422.83 126.33h4.58"/><path d="m425.12 128.62v-4.58"/><path d="m427.22 116.76h4.58"/><path d="m429.51 119.05v-4.58"/><path d="m431.61 119.06h4.58"/><path d="m433.9 121.36v-4.59"/><path d="m436 44.2h4.58"/><path d="m438.29 46.49v-4.58"/><path d="m440.39 101.16h4.58"/><path d="m442.68 103.45v-4.58"/><path d="m444.78 87.99h4.58"/><path d="m447.07 90.28v-4.58"/><path d="m449.17 121.03h4.58"/><path d="m451.46 123.32v-4.59"/><path d="m453.56 68.46h4.58"/><path d="m455.85 70.75v-4.59"/><path d="m457.95 117.94h4.58"/><path d="m460.24 120.23v-4.58"/><path d="m462.34 104.27h4.58"/><path d="m464.63 106.56v-4.58"/><path d="m466.73 79.49h4.58"/><path d="m469.02 81.78v-4.58"/><path d="m471.12 109.96h4.58"/><path d="m473.41 112.25v-4.58"/><path d="m475.51 125.85h4.58"/><path d="m477.8 128.14v-4.58"/><path d="m479.9 136.46h4.58"/><path d="m482.19 138.75v-4.58"/><path d="m484.29 108.44h4.58"/><path d="m486.58 110.73v-4.58"/></g></g><text x="453.56" y="23.63" fill="#005b96" font-family="Arial" font-size="9">34</text></svg>