<svg xmlns="http://www.w3.org/2000/svg" viewBox="0 0 504.00 216.00"><g stroke="#000" stroke-width=".75"><path d="m141.18 142.56h250.44"/><path d="m141.18 142.56v7.2"/><path d="m224.66 142.56v7.2"/><path d="m308.14 142.56v7.2"/><path d="m391.62 142.56v7.2"/></g><g font-family="Arial" font-size="12"><text x="137.85" y="168.48">5</text><text x="217.99" y="168.48">10</text><text x="301.47" y="168.48">15</text><text x="384.94" y="168.48">20</text></g><path fill="none" stroke="#000" stroke-width=".75" d="m59.04 59.04v83.52h414.72"/><g font-family="Arial" font-size="12"><text x="250.73" y="197.16">Data </text><text x="279.41" y="197.16" font-style="italic">i</text><text transform="matrix(0-1 1 0 10.48 151.83)">Shape parameter </text><text font-style="italic" transform="matrix(0-1 1 0 10.48 55.77)">k</text></g><g stroke="#000" stroke-width=".75"><path d="m59.04 140.61v-72.63"/><path d="m59.04 140.61h-7.2"/><path d="m59.04 122.45h-7.2"/><path d="m59.04 104.29h-7.2"/><path d="m59.04 86.13h-7.2"/><path d="m59.04 67.98h-7.2"/></g><g font-family="Arial" font-size="12"><text x="27.96" y="144.73">0.0</text><text x="27.96" y="126.57">0.2</text><text x="27.96" y="108.42">0.4</text><text x="27.96" y="90.26">0.6</text><text x="27.96" y="72.1">0.8</text></g><g stroke-width=".75"><path stroke-dasharray="4 4" stroke="#b17e64" d="m59.04 95.21h414.72"/><g stroke="#6497b1"><path d="m72.11 101.77h4.58"/><path d="m74.4 104.06v-4.58"/><path d="m88.8 128.96h4.59"/><path d="m91.1 131.25v-4.58"/><path d="m105.5 118.84h4.58"/><path d="m107.79 121.13v-4.58"/><path d="m122.2 102.62h4.58"/><path d="m124.49 104.91v-4.58"/><path d="m138.89 108.62h4.58"/><path d="m141.18 110.91v-4.58"/><path d="m155.59 138.71h4.58"/><path d="m157.88 141v-4.58"/><path d="m172.28 123.57h4.58"/><path d="m174.57 125.86v-4.58"/><path d="m188.98 125.19h4.58"/><path d="m191.27 127.48v-4.59"/><path d="m205.67 123.94h4.59"/><path d="m207.97 126.23v-4.58"/><path d="m222.37 138.14h4.58"/><path d="m224.66 140.43v-4.59"/><path d="m239.07 114.74h4.58"/><path d="m241.36 117.04v-4.59"/><path d="m255.76 139.47h4.58"/><path d="m258.05 141.76v-4.58"/><path d="m272.46 133.4h4.58"/><path d="m274.75 135.69v-4.58"/><path d="m289.15 128.01h4.58"/><path d="m291.44 130.3v-4.59"/><path d="m305.85 103.8h4.58"/><path d="m308.14 106.09v-4.58"/><path d="m322.54 129.34h4.59"/><path d="m324.83 131.63v-4.58"/><path d="m339.24 131.79h4.58"/><path d="m341.53 134.09v-4.59"/><path d="m355.94 130.02h4.58"/><path d="m358.23 132.31v-4.58"/><path d="m372.63 119.63h4.58"/><path d="m374.92 121.92v-4.58"/><path d="m389.33 118.83h4.58"/><path d="m391.62 121.12v-4.58"/></g></g><g fill="#005b96" font-family="Arial" font-size="9"><text x="71.06" y="80.1">1</text><text x="87.76" y="65.27">2</text><text x="301.47" y="75.78">15</text><text x="384.94" y="98.09">20</text></g></svg>