<svg xmlns="http://www.w3.org/2000/svg" viewBox="0 0 504.00 216.00"><g stroke="#000" stroke-width=".75"><path d="m72.36 142.56h306.38"/><path d="m72.36 142.56v7.2"/><path d="m174.49 142.56v7.2"/><path d="m276.61 142.56v7.2"/><path d="m378.74 142.56v7.2"/></g><g font-family="Arial" font-size="12"><text x="69.02" y="168.48">0</text><text x="167.81" y="168.48">50</text><text x="266.6" y="168.48">100</text><text x="368.73" y="168.48">150</text></g><path fill="none" stroke="#000" stroke-width=".75" d="m59.04 59.04v83.52h414.72"/><g font-family="Arial" font-size="12"><text x="250.73" y="197.16">Data </text><text x="279.41" y="197.16" font-style="italic">i</text><text transform="matrix(0-1 1 0 10.48 151.83)">Shape parameter </text><text font-style="italic" transform="matrix(0-1 1 0 10.48 55.77)">k</text></g><g stroke="#000" stroke-width=".75"><path d="m59.04 135.48v-65.87"/><path d="m59.04 135.48h-7.2"/><path d="m59.04 119.02h-7.2"/><path d="m59.04 102.55h-7.2"/><path d="m59.04 86.08h-7.2"/><path d="m59.04 69.61h-7.2"/></g><g font-family="Arial" font-size="12"><text x="23.96" y="139.61">-0.1</text><text x="27.96" y="123.14">0.0</text><text x="27.96" y="106.67">0.1</text><text x="27.96" y="90.21">0.2</text><text x="27.96" y="73.74">0.3</text></g><g stroke-width=".75"><path stroke-dasharray="4 4" stroke="#b17e64" d="m59.04 119.02h414.72"/><g stroke="#6497b1"><path d="m72.11 119.72h4.58"/><path d="m74.4 122.01v-4.58"/><path d="m74.15 116.16h4.58"/><path d="m76.44 118.45v-4.58"/><path d="m76.19 136.43h4.59"/><path d="m78.49 138.73v-4.59"/><path d="m78.24 134.23h4.58"/><path d="m80.53 136.52v-4.58"/><path d="m80.28 127.19h4.58"/><path d="m82.57 129.48v-4.58"/><path d="m82.32 129.82h4.58"/><path d="m84.61 132.11v-4.58"/><path d="m84.36 121.61h4.59"/><path d="m86.66 123.9v-4.58"/><path d="m86.41 123.73h4.58"/><path d="m88.7 126.02v-4.58"/><path d="m88.45 105.39h4.58"/><path d="m90.74 107.68v-4.58"/><path d="m90.49 114.98h4.58"/><path d="m92.78 117.27v-4.58"/><path d="m92.53 133.49h4.59"/><path d="m94.83 135.78v-4.58"/><path d="m94.58 131.56h4.58"/><path d="m96.87 133.85v-4.58"/><path d="m96.62 94.3h4.58"/><path d="m98.91 96.59v-4.58"/><path d="m98.66 122.61h4.58"/><path d="m100.95 124.9v-4.58"/><path d="m100.7 127.19h4.59"/><path d="m103 129.48v-4.58"/><path d="m102.75 127.19h4.58"/><path d="m105.04 129.48v-4.58"/><path d="m104.79 115.62h4.58"/><path d="m107.08 117.91v-4.59"/><path d="m106.83 125.34h4.58"/><path d="m109.12 127.63v-4.58"/><path d="m108.87 139.23h4.59"/><path d="m111.17 141.53v-4.59"/><path d="m110.92 105.55h4.58"/><path d="m113.21 107.84v-4.59"/><path d="m112.96 115.29h4.58"/><path d="m115.25 117.58v-4.58"/><path d="m115 116.33h4.58"/><path d="m117.29 118.62v-4.58"/><path d="m117.05 125.54h4.58"/><path d="m119.34 127.84v-4.59"/><path d="m119.09 116.25h4.58"/><path d="m121.38 118.54v-4.58"/><path d="m121.13 117.95h4.58"/><path d="m123.42 120.24v-4.58"/><path d="m123.17 125.15h4.58"/><path d="m125.46 127.44v-4.58"/><path d="m125.22 125.75h4.58"/><path d="m127.51 128.04v-4.59"/><path d="m127.26 125.77h4.58"/><path d="m129.55 128.06v-4.58"/><path d="m129.3 95.4h4.58"/><path d="m131.59 97.69v-4.58"/><path d="m131.34 121.26h4.59"/><path d="m133.63 123.55v-4.59"/><path d="m133.39 121.26h4.58"/><path d="m135.68 123.55v-4.59"/><path d="m135.43 131.73h4.58"/><path d="m137.72 134.02v-4.58"/><path d="m137.47 92.22h4.58"/><path d="m139.76 94.52v-4.59"/><path d="m139.51 127.67h4.59"/><path d="m141.8 129.96v-4.58"/><path d="m141.56 110.28h4.58"/><path d="m143.85 112.57v-4.58"/><path d="m143.6 119h4.58"/><path d="m145.89 121.29v-4.58"/><path d="m145.64 129.49h4.58"/><path d="m147.93 131.78v-4.58"/><path d="m147.68 111.46h4.59"/><path d="m149.97 113.75v-4.59"/><path d="m149.73 107.23h4.58"/><path d="m152.02 109.52v-4.58"/><path d="m151.77 110.72h4.58"/><path d="m154.06 113.01v-4.58"/><path d="m153.81 120.92h4.58"/><path d="m156.1 123.21v-4.58"/><path d="m155.85 113.79h4.59"/><path d="m158.14 116.08v-4.58"/><path d="m157.9 128.76h4.58"/><path d="m160.19 131.05v-4.58"/><path d="m159.94 139.47h4.58"/><path d="m162.23 141.76v-4.58"/><path d="m161.98 127.19h4.58"/><path d="m164.27 129.48v-4.58"/><path d="m164.02 127.19h4.59"/><path d="m166.31 129.48v-4.58"/><path d="m166.07 108.86h4.58"/><path d="m168.36 111.16v-4.59"/><path d="m168.11 133.49h4.58"/><path d="m170.4 135.78v-4.58"/><path d="m170.15 131.2h4.58"/><path d="m172.44 133.49v-4.58"/><path d="m172.19 114.85h4.59"/><path d="m174.49 117.14v-4.58"/><path d="m174.24 108.9h4.58"/><path d="m176.53 111.19v-4.58"/><path d="m176.28 128.23h4.58"/><path d="m178.57 130.52v-4.58"/><path d="m178.32 119.45h4.58"/><path d="m180.61 121.74v-4.58"/><path d="m180.36 112.94h4.59"/><path d="m182.66 115.23v-4.58"/><path d="m182.41 133.49h4.58"/><path d="m184.7 135.78v-4.58"/><path d="m184.45 127.95h4.58"/><path d="m186.74 130.24v-4.58"/><path d="m186.49 113.91h4.58"/><path d="m188.78 116.2v-4.58"/><path d="m188.53 110.16h4.59"/><path d="m190.83 112.45v-4.58"/><path d="m190.58 139.23h4.58"/><path d="m192.87 141.53v-4.59"/><path d="m192.62 134.86h4.58"/><path d="m194.91 137.15v-4.59"/><path d="m194.66 134.86h4.58"/><path d="m196.95 137.15v-4.59"/><path d="m196.7 122.13h4.59"/><path d="m199 124.42v-4.58"/><path d="m198.75 122.61h4.58"/><path d="m201.04 124.9v-4.58"/><path d="m200.79 125.15h4.58"/><path d="m203.08 127.44v-4.58"/><path d="m202.83 102.45h4.58"/><path d="m205.12 104.74v-4.58"/><path d="m204.87 125.18h4.59"/><path d="m207.17 127.47v-4.58"/><path d="m206.92 121.45h4.58"/><path d="m209.21 123.74v-4.58"/><path d="m208.96 68.09h4.58"/><path d="m211.25 70.38v-4.58"/><path d="m211 103.86h4.58"/><path d="m213.29 106.15v-4.58"/><path d="m213.05 115.27h4.58"/><path d="m215.34 117.56v-4.58"/><path d="m215.09 112.36h4.58"/><path d="m217.38 114.65v-4.58"/><path d="m217.13 94.51h4.58"/><path d="m219.42 96.8v-4.58"/><path d="m219.17 107.64h4.58"/><path d="m221.46 109.93v-4.58"/><path d="m221.22 117.32h4.58"/><path d="m223.51 119.62v-4.59"/><path d="m223.26 120.59h4.58"/><path d="m225.55 122.88v-4.58"/><path d="m225.3 119.39h4.58"/><path d="m227.59 121.68v-4.58"/><path d="m227.34 127.67h4.59"/><path d="m229.63 129.96v-4.58"/><path d="m229.39 87.01h4.58"/><path d="m231.68 89.31v-4.59"/><path d="m231.43 105.05h4.58"/><path d="m233.72 107.34v-4.58"/><path d="m233.47 128.68h4.58"/><path d="m235.76 130.97v-4.58"/><path d="m235.51 121.61h4.59"/><path d="m237.8 123.9v-4.58"/><path d="m237.56 123.62h4.58"/><path d="m239.85 125.91v-4.58"/><path d="m239.6 110.16h4.58"/><path d="m241.89 112.45v-4.58"/><path d="m241.64 139.23h4.58"/><path d="m243.93 141.53v-4.59"/><path d="m243.68 128.23h4.59"/><path d="m245.97 130.52v-4.58"/><path d="m245.73 103.29h4.58"/><path d="m248.02 105.58v-4.58"/><path d="m247.77 133.49h4.58"/><path d="m250.06 135.78v-4.58"/><path d="m249.81 128.68h4.58"/><path d="m252.1 130.97v-4.58"/><path d="m251.85 119.99h4.59"/><path d="m254.14 122.28v-4.58"/><path d="m253.9 121.61h4.58"/><path d="m256.19 123.9v-4.58"/><path d="m255.94 128.25h4.58"/><path d="m258.23 130.54v-4.58"/><path d="m257.98 122.31h4.58"/><path d="m260.27 124.6v-4.58"/><path d="m260.02 101.26h4.59"/><path d="m262.31 103.55v-4.58"/><path d="m262.07 67.38h4.58"/><path d="m264.36 69.68v-4.59"/><path d="m264.11 120.59h4.58"/><path d="m266.4 122.88v-4.58"/><path d="m266.15 129.68h4.58"/><path d="m268.44 131.97v-4.58"/><path d="m268.19 129.68h4.59"/><path d="m270.49 131.97v-4.58"/><path d="m270.24 128.75h4.58"/><path d="m272.53 131.04v-4.58"/><path d="m272.28 128.75h4.58"/><path d="m274.57 131.04v-4.58"/><path d="m274.32 128.04h4.58"/><path d="m276.61 130.33v-4.58"/><path d="m276.36 125.34h4.59"/><path d="m278.66 127.63v-4.58"/><path d="m278.41 101.26h4.58"/><path d="m280.7 103.55v-4.58"/><path d="m280.45 120.71h4.58"/><path d="m282.74 123v-4.58"/><path d="m282.49 121.87h4.58"/><path d="m284.78 124.16v-4.58"/><path d="m284.53 139.23h4.59"/><path d="m286.83 141.53v-4.59"/><path d="m286.58 83.43h4.58"/><path d="m288.87 85.72v-4.58"/><path d="m288.62 128.04h4.58"/><path d="m290.91 130.33v-4.58"/><path d="m290.66 132.37h4.58"/><path d="m292.95 134.67v-4.59"/><path d="m292.7 127.51h4.59"/><path d="m295 129.8v-4.59"/><path d="m294.75 86.27h4.58"/><path d="m297.04 88.56v-4.59"/><path d="m296.79 120.84h4.58"/><path d="m299.08 123.13v-4.58"/><path d="m298.83 124.86h4.58"/><path d="m301.12 127.15v-4.58"/><path d="m300.87 119h4.59"/><path d="m303.17 121.29v-4.58"/><path d="m302.92 125.91h4.58"/><path d="m305.21 128.2v-4.58"/><path d="m304.96 129.21h4.58"/><path d="m307.25 131.5v-4.59"/><path d="m307 116.17h4.58"/><path d="m309.29 118.46v-4.58"/><path d="m309.05 119.29h4.58"/><path d="m311.34 121.58v-4.58"/><path d="m311.09 116.25h4.58"/><path d="m313.38 118.54v-4.58"/><path d="m313.13 132.55h4.58"/><path d="m315.42 134.84v-4.59"/><path d="m315.17 121.39h4.58"/><path d="m317.46 123.68v-4.58"/><path d="m317.22 116.9h4.58"/><path d="m319.51 119.19v-4.58"/><path d="m319.26 117.32h4.58"/><path d="m321.55 119.61v-4.58"/><path d="m321.3 120.19h4.58"/><path d="m323.59 122.48v-4.58"/><path d="m323.34 132.37h4.59"/><path d="m325.63 134.67v-4.59"/><path d="m325.39 132.55h4.58"/><path d="m327.68 134.84v-4.59"/><path d="m327.43 123.14h4.58"/><path d="m329.72 125.43v-4.59"/><path d="m329.47 105.04h4.58"/><path d="m331.76 107.33v-4.58"/><path d="m331.51 128.75h4.59"/><path d="m333.8 131.04v-4.58"/><path d="m333.56 125.34h4.58"/><path d="m335.85 127.63v-4.58"/><path d="m335.6 98.52h4.58"/><path d="m337.89 100.81v-4.58"/><path d="m337.64 117.26h4.58"/><path d="m339.93 119.55v-4.58"/><path d="m339.68 116.59h4.59"/><path d="m341.97 118.88v-4.58"/><path d="m341.73 92.36h4.58"/><path d="m344.02 94.65v-4.58"/><path d="m343.77 102.07h4.58"/><path d="m346.06 104.36v-4.59"/><path d="m345.81 119.46h4.58"/><path d="m348.1 121.75v-4.58"/><path d="m347.85 119.27h4.59"/><path d="m350.14 121.56v-4.59"/><path d="m349.9 117.71h4.58"/><path d="m352.19 120v-4.59"/><path d="m351.94 105.97h4.58"/><path d="m354.23 108.26v-4.58"/><path d="m353.98 112.76h4.58"/><path d="m356.27 115.05v-4.58"/><path d="m356.02 75.5h4.59"/><path d="m358.31 77.79v-4.58"/><path d="m358.07 104.72h4.58"/><path d="m360.36 107.01v-4.58"/><path d="m360.11 96.49h4.58"/><path d="m362.4 98.78v-4.58"/><path d="m362.15 119.46h4.58"/><path d="m364.44 121.75v-4.58"/><path d="m364.19 109.41h4.59"/><path d="m366.49 111.71v-4.59"/><path d="m366.24 117.77h4.58"/><path d="m368.53 120.06v-4.58"/><path d="m368.28 107.73h4.58"/><path d="m370.57 110.02v-4.58"/><path d="m370.32 102.79h4.58"/><path d="m372.61 105.08v-4.58"/><path d="m372.36 117.52h4.59"/><path d="m374.66 119.81v-4.58"/><path d="m374.41 114.62h4.58"/><path d="m376.7 116.91v-4.58"/><path d="m376.45 114.58h4.58"/><path d="m378.74 116.87v-4.59"/><path d="m378.49 107.45h4.58"/><path d="m380.78 109.75v-4.59"/><path d="m380.53 105.63h4.59"/><path d="m382.83 107.92v-4.58"/><path d="m382.58 119.71h4.58"/><path d="m384.87 122v-4.58"/><path d="m384.62 116.74h4.58"/><path d="m386.91 119.03v-4.58"/><path d="m386.66 112.87h4.58"/><path d="m388.95 115.16v-4.58"/><path d="m388.7 120.56h4.59"/><path d="m391 122.85v-4.58"/><path d="m390.75 101.28h4.58"/><path d="m393.04 103.57v-4.58"/><path d="m392.79 119h4.58"/><path d="m395.08 121.29v-4.58"/><path d="m394.83 102.26h4.58"/><path d="m397.12 104.55v-4.59"/><path d="m396.87 116.63h4.59"/><path d="m399.17 118.92v-4.58"/><path d="m398.92 121.24h4.58"/><path d="m401.21 123.53v-4.58"/><path d="m400.96 127.2h4.58"/><path d="m403.25 129.49v-4.58"/><path d="m403 114.58h4.58"/><path d="m405.29 116.87v-4.59"/><path d="m405.05 114.12h4.58"/><path d="m407.34 116.41v-4.58"/><path d="m407.09 110.2h4.58"/><path d="m409.38 112.49v-4.58"/><path d="m409.13 121.1h4.58"/><path d="m411.42 123.39v-4.58"/><path d="m411.17 80.07h4.58"/><path d="m413.46 82.37v-4.59"/><path d="m413.22 120.84h4.58"/><path d="m415.51 123.13v-4.58"/><path d="m415.26 123.24h4.58"/><path d="m417.55 125.53v-4.58"/><path d="m417.3 116.68h4.58"/><path d="m419.59 118.97v-4.58"/><path d="m419.34 112.36h4.59"/><path d="m421.63 114.66v-4.59"/><path d="m421.39 104.84h4.58"/><path d="m423.68 107.13v-4.58"/><path d="m423.43 105.5h4.58"/><path d="m425.72 107.79v-4.59"/><path d="m425.47 115.47h4.58"/><path d="m427.76 117.76v-4.58"/><path d="m427.51 121.19h4.59"/><path d="m429.8 123.48v-4.58"/><path d="m429.56 111.46h4.58"/><path d="m431.85 113.75v-4.58"/><path d="m431.6 124.5h4.58"/><path d="m433.89 126.79v-4.58"/><path d="m433.64 84.38h4.58"/><path d="m435.93 86.67v-4.58"/><path d="m435.68 120.83h4.59"/><path d="m437.97 123.12v-4.59"/><path d="m437.73 103.12h4.58"/><path d="m440.02 105.41v-4.58"/><path d="m439.77 98.48h4.58"/><path d="m442.06 100.77v-4.59"/><path d="m441.81 81.4h4.58"/><path d="m444.1 83.69v-4.59"/><path d="m443.85 113.75h4.59"/><path d="m446.14 116.04v-4.58"/><path d="m445.9 116.27h4.58"/><path d="m448.19 118.56v-4.58"/><path d="m447.94 114.41h4.58"/><path d="m450.23 116.7v-4.58"/><path d="m449.98 99.7h4.58"/><path d="m452.27 101.99v-4.58"/><path d="m452.02 122.39h4.59"/><path d="m454.31 124.68v-4.58"/><path d="m454.07 95.23h4.58"/><path d="m456.36 97.52v-4.58"/><path d="m456.11 62.13h4.58"/><path d="m458.4 64.42v-4.58"/></g></g></svg>