<svg xmlns="http://www.w3.org/2000/svg" viewBox="0 0 504.00 216.00"><g fill="#fff"><path d="m0 0h504v216h-504z"/><path stroke="#fff" stroke-width="1.06" d="m0 216v-216h504v216"/><path d="m21.49 178.7v-164.3h468.11v164.3"/></g><g fill="#b2001d" stroke="#000" stroke-width="1.06"><path d="m55.66 96.55h12.9v74.68h-12.9z"/><path d="m133.03 96.55h12.9v74.68h-12.9z"/><path d="m184.62 21.87h12.9v149.36h-12.9z"/><path d="m223.3 21.87h12.9v149.36h-12.9z"/><path d="m236.2 96.55h12.9v74.68h-12.9z"/><path d="m249.1 96.55h12.9v74.68h-12.9z"/><path d="m287.78 96.55h12.9v74.68h-12.9z"/><path d="m339.37 96.55h12.9v74.68h-12.9z"/><path d="m442.53 96.55h12.9v74.68h-12.9z"/></g><g fill="none"><path stroke="#222" stroke-width="6.38" d="m21.49 178.7h468.11"/><g stroke="#000" stroke-width="1.06"><path d="m101.38 182.95v-4.25"/><path d="m194.41 182.95v-4.25"/><path d="m287.43 182.95v-4.25"/><path d="m380.46 182.95v-4.25"/><path d="m473.48 182.95v-4.25"/></g></g><g font-family="Arial"><g font-size="9.6"><text x="88.87" y="192.66">1.000</text><text x="181.9" y="192.66">1.025</text><text x="274.92" y="192.66">1.050</text><text x="367.95" y="192.66">1.075</text><text x="460.97" y="192.66">1.100</text></g><text x="214.73" y="205.2" font-weight="bold" font-size="13">Rhat statistic</text></g></svg>