<svg xmlns="http://www.w3.org/2000/svg" viewBox="0 0 504.00 216.00"><g fill="#fff"><path d="m0 0h504v216h-504z"/><path stroke="#fff" stroke-width="1.06" d="m0 216v-216h504v216"/><path d="m21.49 178.7v-164.3h378.21v164.3"/></g><path stroke="#000" stroke-width="1.06" d="m49.42 21.87h10.74v149.36h-10.74z"/><g stroke-width="4.25"><path stroke="#87ceeb" d="m371.76 178.7v-164.3"/><path fill="none" stroke="#222" d="m21.49 178.7h378.21"/></g><g fill="none" stroke="#000" stroke-width="1.06"><path d="m49.42 182.95v-4.25"/><path d="m139.27 182.95v-4.25"/><path d="m229.11 182.95v-4.25"/><path d="m318.96 182.95v-4.25"/></g><g font-family="Arial"><g font-size="9.6"><text x="42.47" y="192.66">0.0</text><text x="132.32" y="192.66">0.1</text><text x="222.16" y="192.66">0.2</text><text x="312" y="192.66">0.3</text></g><text x="156.59" y="205.2" font-weight="bold" font-size="13">Test =  prop_zero</text></g><path fill="#fff" d="m409.74 68.91h69.83v55.28h-69.83z"/><g stroke-width="4.25"><path stroke="#87ceeb" d="m422.63 102.66v-17.28"/><path stroke="#000" d="m422.63 119.94v-17.28"/></g><g font-family="Arial" font-size="13"><text x="433.43" y="98.49">T(y)</text><text x="433.43" y="115.77">T(yrep)</text></g></svg>