<svg xmlns="http://www.w3.org/2000/svg" viewBox="0 0 648.00 216.00"><g fill="#fff"><path d="m0 0h648v216h-648z"/><path stroke="#fff" stroke-width="1.06" d="m0 216v-216h324v216"/><path d="m21.49 178.7v-144.71h198.21v144.71"/></g><path stroke="#000" stroke-width="1.06" d="m36.13 40.57h5.63v131.55h-5.63z"/><g stroke-width="4.25"><path stroke="#87ceeb" d="m205.06 178.7v-144.71"/><path fill="none" stroke="#222" d="m21.49 178.7h198.21"/></g><g fill="none" stroke="#000" stroke-width="1.06"><path d="m36.13 182.95v-4.25"/><path d="m83.21 182.95v-4.25"/><path d="m130.3 182.95v-4.25"/><path d="m177.38 182.95v-4.25"/></g><g font-family="Arial"><g font-size="9.6"><text x="29.18" y="192.66">0.0</text><text x="76.26" y="192.66">0.1</text><text x="123.35" y="192.66">0.2</text><text x="170.43" y="192.66">0.3</text></g><text x="66.59" y="205.2" font-weight="bold" font-size="13">Test =  prop_zero</text></g><path fill="#fff" d="m229.74 78.7h69.83v55.28h-69.83z"/><g stroke-width="4.25"><path stroke="#87ceeb" d="m242.63 112.45v-17.28"/><path stroke="#000" d="m242.63 129.73v-17.28"/></g><g font-family="Arial"><g font-size="13"><text x="253.43" y="108.28">T(y)</text><text x="253.43" y="125.56">T(yrep)</text></g><text x="88.58" y="30.39" font-size="18">Poisson</text></g><g fill="#fff"><path stroke="#fff" stroke-width="1.06" d="m324 216v-216h324v216"/><path d="m345.49 178.7v-144.71h198.21v144.71"/></g><g stroke="#000" stroke-width="1.06"><path d="m359.96 171.53h5.46v.59h-5.46z"/><path d="m365.42 171.53h5.46v.59h-5.46z"/><path d="m370.88 170.35h5.46v1.77h-5.46z"/><path d="m376.34 169.17h5.46v2.95h-5.46z"/><path d="m381.8 167.99h5.46v4.13h-5.46z"/><path d="m387.26 162.09h5.46v10.03h-5.46z"/><path d="m392.72 148.53h5.46v23.6h-5.46z"/><path d="m398.18 158.55h5.46v13.57h-5.46z"/><path d="m403.64 133.78h5.46v38.35h-5.46z"/><path d="m409.1 134.96h5.46v37.17h-5.46z"/><path d="m414.56 95.43h5.46v76.69h-5.46z"/><path d="m420.02 62.4h5.46v109.73h-5.46z"/><path d="m425.48 85.99h5.46v86.13h-5.46z"/><path d="m430.94 49.42h5.46v122.71h-5.46z"/><path d="m436.4 70.65h5.46v101.47h-5.46z"/><path d="m441.86 40.57h5.46v131.55h-5.46z"/><path d="m447.32 93.66h5.46v78.46h-5.46z"/><path d="m452.78 71.24h5.46v100.88h-5.46z"/><path d="m458.24 88.94h5.46v83.18h-5.46z"/><path d="m463.71 133.78h5.46v38.35h-5.46z"/><path d="m469.17 120.21h5.46v51.91h-5.46z"/><path d="m474.63 149.12h5.46v23.01h-5.46z"/><path d="m480.09 156.78h5.46v15.34h-5.46z"/><path d="m485.55 162.09h5.46v10.03h-5.46z"/><path d="m491.01 165.04h5.46v7.08h-5.46z"/><path d="m496.47 168.58h5.46v3.54h-5.46z"/><path d="m501.93 169.17h5.46v2.95h-5.46z"/><path d="m507.39 169.17h5.46v2.95h-5.46z"/><path d="m518.31 171.53h5.46v.59h-5.46z"/><path d="m523.77 171.53h5.46v.59h-5.46z"/></g><g stroke-width="4.25"><path stroke="#87ceeb" d="m450.73 178.7v-144.71"/><path fill="none" stroke="#222" d="m345.49 178.7h198.21"/></g><g fill="none" stroke="#000" stroke-width="1.06"><path d="m362.23 182.95v-4.25"/><path d="m417.97 182.95v-4.25"/><path d="m473.7 182.95v-4.25"/><path d="m529.44 182.95v-4.25"/></g><g font-family="Arial"><g font-size="9.6"><text x="355.28" y="192.66">0.2</text><text x="411.01" y="192.66">0.3</text><text x="466.75" y="192.66">0.4</text><text x="522.49" y="192.66">0.5</text></g><text x="390.59" y="205.2" font-weight="bold" font-size="13">Test =  prop_zero</text></g><path fill="#fff" d="m553.74 78.7h69.83v55.28h-69.83z"/><g stroke-width="4.25"><path stroke="#87ceeb" d="m566.63 112.45v-17.28"/><path stroke="#000" d="m566.63 129.73v-17.28"/></g><g font-family="Arial"><g font-size="13"><text x="577.43" y="108.28">T(y)</text><text x="577.43" y="125.56">T(yrep)</text></g><text x="372.06" y="30.39" font-size="18">Negative Binomial</text></g></svg>