<svg xmlns="http://www.w3.org/2000/svg" viewBox="0 0 648.00 216.00"><g fill="#fff"><path d="m0 0h648v216h-648z"/><path stroke="#fff" stroke-width="1.06" d="m0 216v-216h324v216"/><path d="m21.49 178.7v-144.71h198.21v144.71"/></g><path stroke="#000" stroke-width="1.06" d="m36.13 40.57h5.63v131.55h-5.63z"/><g stroke-width="4.25"><path stroke="#87ceeb" d="m205.06 178.7v-144.71"/><path fill="none" stroke="#222" d="m21.49 178.7h198.21"/></g><g fill="none" stroke="#000" stroke-width="1.06"><path d="m36.13 182.95v-4.25"/><path d="m83.21 182.95v-4.25"/><path d="m130.3 182.95v-4.25"/><path d="m177.38 182.95v-4.25"/></g><g font-family="Arial"><g font-size="9.6"><text x="29.18" y="192.66">0.0</text><text x="76.26" y="192.66">0.1</text><text x="123.35" y="192.66">0.2</text><text x="170.43" y="192.66">0.3</text></g><text x="66.59" y="205.2" font-weight="bold" font-size="13">Test =  prop_zero</text></g><path fill="#fff" d="m229.74 78.7h69.83v55.28h-69.83z"/><g stroke-width="4.25"><path stroke="#87ceeb" d="m242.63 112.45v-17.28"/><path stroke="#000" d="m242.63 129.73v-17.28"/></g><g font-family="Arial"><g font-size="13"><text x="253.43" y="108.28">T(y)</text><text x="253.43" y="125.56">T(yrep)</text></g><text x="88.58" y="30.39" font-size="18">Poisson</text></g><g fill="#fff"><path stroke="#fff" stroke-width="1.06" d="m324 216v-216h324v216"/><path d="m345.49 178.7v-144.71h198.21v144.71"/></g><g stroke="#000" stroke-width="1.06"><path d="m359.96 171.51h5.46v.61h-5.46z"/><path d="m365.42 170.91h5.46v1.22h-5.46z"/><path d="m370.88 165.42h5.46v6.7h-5.46z"/><path d="m376.34 163.6h5.46v8.53h-5.46z"/><path d="m381.8 149.59h5.46v22.53h-5.46z"/><path d="m387.26 148.37h5.46v23.75h-5.46z"/><path d="m392.72 150.81h5.46v21.32h-5.46z"/><path d="m398.18 114.26h5.46v57.86h-5.46z"/><path d="m403.64 119.74h5.46v52.38h-5.46z"/><path d="m409.1 68.58h5.46v103.54h-5.46z"/><path d="m414.56 84.42h5.46v87.7h-5.46z"/><path d="m420.02 40.57h5.46v131.55h-5.46z"/><path d="m425.48 95.38h5.46v76.74h-5.46z"/><path d="m430.94 47.27h5.46v124.86h-5.46z"/><path d="m436.4 86.25h5.46v85.88h-5.46z"/><path d="m441.86 52.14h5.46v119.98h-5.46z"/><path d="m447.32 102.08h5.46v70.04h-5.46z"/><path d="m452.78 92.34h5.46v79.79h-5.46z"/><path d="m458.24 138.02h5.46v34.11h-5.46z"/><path d="m463.71 128.88h5.46v43.24h-5.46z"/><path d="m469.17 154.46h5.46v17.66h-5.46z"/><path d="m474.63 156.29h5.46v15.84h-5.46z"/><path d="m480.09 160.55h5.46v11.57h-5.46z"/><path d="m485.55 161.77h5.46v10.35h-5.46z"/><path d="m491.01 165.42h5.46v6.7h-5.46z"/><path d="m496.47 169.08h5.46v3.05h-5.46z"/><path d="m523.77 171.51h5.46v.61h-5.46z"/></g><g stroke-width="4.25"><path stroke="#87ceeb" d="m442.45 178.7v-144.71"/><path fill="none" stroke="#222" d="m345.49 178.7h198.21"/></g><g fill="none" stroke="#000" stroke-width="1.06"><path d="m350.36 182.95v-4.25"/><path d="m408.36 182.95v-4.25"/><path d="m466.36 182.95v-4.25"/><path d="m524.36 182.95v-4.25"/></g><g font-family="Arial"><g font-size="9.6"><text x="343.41" y="192.66">0.2</text><text x="401.41" y="192.66">0.3</text><text x="459.41" y="192.66">0.4</text><text x="517.41" y="192.66">0.5</text></g><text x="390.59" y="205.2" font-weight="bold" font-size="13">Test =  prop_zero</text></g><path fill="#fff" d="m553.74 78.7h69.83v55.28h-69.83z"/><g stroke-width="4.25"><path stroke="#87ceeb" d="m566.63 112.45v-17.28"/><path stroke="#000" d="m566.63 129.73v-17.28"/></g><g font-family="Arial"><g font-size="13"><text x="577.43" y="108.28">T(y)</text><text x="577.43" y="125.56">T(yrep)</text></g><text x="372.06" y="30.39" font-size="18">Negative Binomial</text></g></svg>